# xmcd
#
# Track frame offsets:
#	187
#	19660
#	36210
#	61580
#	79885
#	98617
#	120157
#	140022
#	163857
#	186812
#	209240
#	234132
#	253100
#	283190
#
# Disc length: 4082 seconds
#
# Revision: 1
# Processed by: cddbd v1.5.1PL0 Copyright (c) Steve Scherf et al.
# Submitted via: CDex 1.50Beta5
#
DISCID=be0ff00e
DTITLE=沢田聖子 - 行きくれて…行きついて
DYEAR=1987
DGENRE=Pop
TTITLE0=行きくれて…行きついて
TTITLE1=雪ひとひらに
TTITLE2=優しくして…
TTITLE3=触れていたい
TTITLE4=時がいくつ流れても
TTITLE5=Steady Girl
TTITLE6=風色のチャンス
TTITLE7=気にしないで
TTITLE8=愛を急がずに
TTITLE9=切ない夜にささやかないで
TTITLE10=冷たい言葉で傷つけて
TTITLE11=悲しむ程まだ人生は知らない
TTITLE12=小さな船
TTITLE13=あなたからF.O.
EXTD=
EXTT0=
EXTT1=
EXTT2=
EXTT3=
EXTT4=
EXTT5=
EXTT6=
EXTT7=
EXTT8=
EXTT9=
EXTT10=
EXTT11=
EXTT12=
EXTT13=
PLAYORDER=
